<?xml version="1.0" encoding="UTF-8"?>
<svg id="Layer_1" data-name="Layer 1" xmlns="http://www.w3.org/2000/svg" viewBox="0 0 967.87 333.63">
  <defs>
    <style>
      .cls-1 {
        stroke-linecap: round;
      }

      .cls-1, .cls-2, .cls-3, .cls-4, .cls-5, .cls-6 {
        stroke-miterlimit: 10;
      }

      .cls-1, .cls-3, .cls-4, .cls-6 {
        fill: none;
      }

      .cls-1, .cls-5 {
        stroke: #000;
      }

      .cls-2 {
        fill: #fff;
        stroke: #fff;
        stroke-width: 1.19px;
      }

      .cls-3 {
        stroke-width: .75px;
      }

      .cls-3, .cls-4, .cls-6 {
        stroke: #ffd42e;
      }

      .cls-4 {
        stroke-width: .5px;
      }

      .cls-5 {
        fill: #ffd42e;
        stroke-width: .1px;
      }

      .cls-7 {
        font-family: HelveticaNeue-Medium, 'Helvetica Neue';
        font-size: 60px;
        font-weight: 500;
      }

      .cls-8 {
        letter-spacing: .03em;
      }
    </style>
  </defs>
  <rect class="cls-2" x="136.83" y="63.42" width="762.1" height="85.61"/>
  <text class="cls-7" transform="translate(143.61 111.34)"><tspan x="0" y="0">Öve</tspan><tspan class="cls-8" x="110.1" y="0">r</tspan><tspan x="133.02" y="0">vakningsmyndiheten</tspan></text>
  <g>
    <rect class="cls-5" x="15.55" y="78.68" width="23.94" height="3.85" rx="1.57" ry="1.57"/>
    <path class="cls-5" d="M46.92,105.56c-1.53-3.19-6.72-11.67-19.4-11.67s-17.88,8.45-19.4,11.69c-.27.58.15,1.24.79,1.24h37.23c.64-.01,1.05-.68.78-1.25ZM17.91,99.21c0,.08-.13.16-.13.16l-4.2,3.92c-.1.06-.21.1-.33.1l-1.11.02c-.12-.08-.12-.24-.02-.33l5.65-5.36s.14.03.14.1v1.38Z"/>
    <rect class="cls-5" x="7.6" y="108.03" width="39.83" height="7.4" rx="1.26" ry="1.26"/>
    <g>
      <path class="cls-1" d="M44.18,116.64c0,9.75-6.91,17.66-16.66,17.66s-16.66-7.91-16.66-17.66"/>
      <path class="cls-3" d="M44.18,116.64c0,9.75-6.91,17.66-16.66,17.66s-16.66-7.91-16.66-17.66"/>
    </g>
    <circle class="cls-6" cx="27.52" cy="123.48" r="3.99"/>
    <path class="cls-5" d="M27.52,92.99h-2.54c-.28,0-.51-.23-.51-.51v-6.28c0-.28-.23-.51-.51-.51h-4.61c-.14,0-.27-.05-.36-.15l-.52-.52c-.1-.1-.23-.15-.36-.15h-.18c-.28,0-.51-.23-.51-.51v-.72c0-.28.23-.51.51-.51h19.21c.28,0,.51.23.51.51v.72c0,.28-.23.51-.51.51h-.18c-.14,0-.27.05-.36.15l-.52.52c-.1.1-.23.15-.36.15h-4.61c-.28,0-.51.23-.51.51v6.28c0,.28-.23.51-.51.51h-2.54"/>
  </g>
  <g>
    <rect class="cls-5" x="66.1" y="78.53" width="23.94" height="3.85" rx="1.57" ry="1.57"/>
    <path class="cls-5" d="M97.46,105.41c-1.53-3.19-6.72-11.67-19.4-11.67s-17.88,8.45-19.4,11.69c-.27.58.15,1.24.79,1.24h37.23c.64-.01,1.05-.68.78-1.25ZM68.46,99.06c0,.08-.13.16-.13.16l-4.2,3.92c-.1.06-.21.1-.33.1l-1.11.02c-.12-.08-.12-.24-.02-.33l5.65-5.36s.14.03.14.1v1.38Z"/>
    <rect class="cls-5" x="58.15" y="107.88" width="39.83" height="7.4" rx="1.26" ry="1.26"/>
    <g>
      <path class="cls-1" d="M94.72,116.49c0,9.75-6.91,17.66-16.66,17.66s-16.66-7.91-16.66-17.66"/>
      <path class="cls-4" d="M94.72,116.49c0,9.75-6.91,17.66-16.66,17.66s-16.66-7.91-16.66-17.66"/>
    </g>
    <circle class="cls-6" cx="78.07" cy="123.32" r="3.99"/>
    <path class="cls-5" d="M78.07,92.83h-2.54c-.28,0-.51-.23-.51-.51v-6.28c0-.28-.23-.51-.51-.51h-4.61c-.14,0-.27-.05-.36-.15l-.52-.52c-.1-.1-.23-.15-.36-.15h-.18c-.28,0-.51-.23-.51-.51v-.72c0-.28.23-.51.51-.51h19.21c.28,0,.51.23.51.51v.72c0,.28-.23.51-.51.51h-.18c-.14,0-.27.05-.36.15l-.52.52c-.1.1-.23.15-.36.15h-4.61c-.28,0-.51.23-.51.51v6.28c0,.28-.23.51-.51.51h-2.54"/>
  </g>
  <g>
    <rect class="cls-5" x="42.19" y="129.98" width="23.94" height="3.85" rx="1.57" ry="1.57"/>
    <path class="cls-5" d="M73.55,156.86c-1.53-3.19-6.72-11.67-19.4-11.67s-17.88,8.45-19.4,11.69c-.27.58.15,1.24.79,1.24h37.23c.64-.01,1.05-.68.78-1.25ZM44.55,150.51c0,.08-.13.16-.13.16l-4.2,3.92c-.1.06-.21.1-.33.1l-1.11.02c-.12-.08-.12-.24-.02-.33l5.65-5.36s.14.03.14.1v1.38Z"/>
    <rect class="cls-5" x="34.24" y="159.33" width="39.83" height="7.4" rx="1.26" ry="1.26"/>
    <g>
      <path class="cls-1" d="M70.81,167.94c0,9.75-6.91,17.66-16.66,17.66s-16.66-7.91-16.66-17.66"/>
      <path class="cls-3" d="M70.81,167.94c0,9.75-6.91,17.66-16.66,17.66s-16.66-7.91-16.66-17.66"/>
    </g>
    <circle class="cls-6" cx="54.16" cy="174.77" r="3.99"/>
    <path class="cls-5" d="M54.16,144.28h-2.54c-.28,0-.51-.23-.51-.51v-6.28c0-.28-.23-.51-.51-.51h-4.61c-.14,0-.27-.05-.36-.15l-.52-.52c-.1-.1-.23-.15-.36-.15h-.18c-.28,0-.51-.23-.51-.51v-.72c0-.28.23-.51.51-.51h19.21c.28,0,.51.23.51.51v.72c0,.28-.23.51-.51.51h-.18c-.14,0-.27.05-.36.15l-.52.52c-.1.1-.23.15-.36.15h-4.61c-.28,0-.51.23-.51.51v6.28c0,.28-.23.51-.51.51h-2.54"/>
  </g>
</svg>